<?xml version="1.0" encoding="utf-8"?>
<!-- Generator: Adobe Illustrator 27.5.0, SVG Export Plug-In . SVG Version: 6.00 Build 0)  -->
<svg version="1.1" id="Layer_1" xmlns="http://www.w3.org/2000/svg" xmlns:xlink="http://www.w3.org/1999/xlink" x="0px" y="0px"
	 viewBox="0 0 640 640" style="enable-background:new 0 0 640 640;" xml:space="preserve">
<path style="fill-rule:evenodd;clip-rule:evenodd;fill:#F0F0F0;" d="M206.43,570.22c-10.42,0-19.88-6.55-23.54-16.31
	c-4.87-12.99,1.72-27.52,14.7-32.39l7.25-2.72c19.87-7.45,37.8-19.51,52.48-35.22c-19.15-0.96-37.35-8.49-51.65-21.46
	c-11.78-10.68-20.13-24.25-24.32-39.42c-15.16-4.19-28.73-12.55-39.41-24.32c-13.9-15.33-21.56-35.14-21.56-55.8
	c-0.01-21.83,8.35-42.37,23.55-57.98c-15.04-15.42-23.56-36.19-23.56-57.96c0-20.67,7.66-40.49,21.56-55.81
	c10.68-11.78,24.25-20.13,39.41-24.32c4.19-15.16,12.54-28.73,24.32-39.41c15.33-13.9,35.14-21.56,55.81-21.56
	c21.77,0,42.55,8.52,57.97,23.56c15.6-15.2,36.14-23.56,57.97-23.56c20.67,0,40.49,7.66,55.82,21.56
	c11.78,10.68,20.13,24.25,24.32,39.41c15.17,4.19,28.73,12.54,39.42,24.32c13.9,15.32,21.56,35.14,21.56,55.81
	c0,21.78-8.51,42.56-23.55,57.97c15.04,15.42,23.56,36.2,23.56,57.97c0,20.66-7.66,40.48-21.56,55.81
	c-10.68,11.78-24.25,20.13-39.41,24.32c-4.19,15.17-12.54,28.73-24.32,39.41c-15.33,13.9-35.14,21.56-55.81,21.56
	c-17.73,0-34.91-5.71-49.19-16.21c-5.85,12.74-13.13,24.84-21.71,36.06c-21.62,28.29-50.68,49.85-84.02,62.36l-7.24,2.72
	C212.43,569.68,209.46,570.22,206.43,570.22z"/>
<path style="fill-rule:evenodd;clip-rule:evenodd;fill:#FFFFFF;" d="M486.25,284.62c16.53-14.45,26.28-35.38,26.28-57.97
	c0-19.17-7.1-37.56-20-51.77c-10.7-11.79-24.63-19.91-39.91-23.41c-3.5-15.28-11.62-29.21-23.41-39.91c-14.22-12.9-32.6-20-51.78-20
	c-20.6,0-39.96,8.02-54.52,22.58c-1.19,1.19-2.34,2.42-3.45,3.69c-14.45-16.53-35.38-26.27-57.96-26.28c-19.17,0-37.55,7.1-51.77,20
	c-11.79,10.7-19.91,24.62-23.41,39.91c-15.28,3.5-29.21,11.62-39.91,23.41c-12.9,14.22-20,32.61-20,51.78
	c0.01,22.58,9.75,43.51,26.28,57.96c-1.26,1.11-2.49,2.26-3.68,3.45c-14.57,14.57-22.59,33.94-22.58,54.54
	c0,19.17,7.1,37.55,20,51.77c10.7,11.79,24.62,19.91,39.91,23.41c3.5,15.29,11.62,29.21,23.41,39.91c14.22,12.9,32.61,20,51.77,20
	c3.09,0,6.17-0.18,9.2-0.55c-16.48,21.26-38.62,37.87-63.73,47.28l-7.25,2.72c-9.88,3.71-14.91,14.77-11.19,24.66
	c2.79,7.43,10,12.42,17.93,12.42c2.3,0,4.57-0.41,6.73-1.22l7.25-2.72c32.29-12.11,60.43-32.99,81.36-60.38
	c9.93-12.99,18-27.08,24.11-42.06c14,12.56,32.37,19.85,51.55,19.85c19.17,0,37.56-7.1,51.77-20c11.79-10.7,19.91-24.62,23.41-39.91
	c15.28-3.5,29.21-11.62,39.91-23.41c12.9-14.22,20-32.61,20-51.77C512.53,319.99,502.78,299.06,486.25,284.62z"/>
<g id="Layer_x5F_1">
	<g id="_391066184">
		<path id="_391068056" style="fill-rule:evenodd;clip-rule:evenodd;" d="M278.57,291.77h-75.06
			c-35.91-0.01-65.12-29.23-65.13-65.13c0-33.62,25.6-61.36,58.33-64.77c3.41-32.73,31.16-58.33,64.77-58.33
			c35.91,0.01,65.12,29.23,65.13,65.13v75.06c0,3.95-3.2,7.15-7.15,7.15c-3.95,0-7.15-3.2-7.15-7.15v-75.06
			c-0.01-28.02-22.81-50.82-50.83-50.83c-28.02,0-50.82,22.8-50.82,50.82c0,3.95-3.2,7.15-7.15,7.15
			c-28.02,0-50.82,22.8-50.82,50.82c0.01,28.02,22.81,50.82,50.83,50.83h75.06c3.95,0,7.15,3.2,7.15,7.15
			C285.72,288.56,282.52,291.77,278.57,291.77z"/>
		<path id="_391067504" style="fill-rule:evenodd;clip-rule:evenodd;" d="M377.43,465.68c-35.91,0-65.12-29.21-65.12-65.12v-75.07
			c0-3.95,3.2-7.15,7.15-7.15c3.95,0,7.15,3.2,7.15,7.15v75.07c0,28.02,22.8,50.82,50.82,50.82c28.02,0,50.82-22.8,50.82-50.82
			c0-3.95,3.2-7.15,7.15-7.15c28.02,0,50.82-22.8,50.82-50.82s-22.8-50.82-50.82-50.82h-75.07c-3.95,0-7.15-3.2-7.15-7.15
			c0-3.95,3.2-7.15,7.15-7.15h75.07c35.91,0,65.12,29.21,65.12,65.12c0,33.61-25.6,61.36-58.33,64.77
			C438.8,440.09,411.05,465.68,377.43,465.68L377.43,465.68z"/>
		<path id="_391067696" style="fill-rule:evenodd;clip-rule:evenodd;" d="M435.41,291.77h-75.07c-3.95,0-7.15-3.2-7.15-7.15
			c0-3.95,3.2-7.15,7.15-7.15h75.07c28.02,0,50.82-22.8,50.82-50.82s-22.8-50.82-50.82-50.82c-3.95,0-7.15-3.2-7.15-7.15
			c-0.01-28.03-22.81-50.82-50.82-50.82h-0.01c-13.57,0-26.33,5.28-35.93,14.88c-9.6,9.6-14.89,22.36-14.88,35.94v75.06
			c0,3.95-3.2,7.15-7.15,7.15s-7.15-3.2-7.15-7.15v-75.07c0-17.4,6.77-33.75,19.07-46.05c12.3-12.3,28.65-19.07,46.04-19.07
			c0.01,0,0.01,0,0.02,0c33.6,0,61.35,25.6,64.77,58.32c32.73,3.41,58.33,31.16,58.33,64.77
			C500.53,262.55,471.31,291.77,435.41,291.77L435.41,291.77z"/>
		<path id="_391067408" style="fill-rule:evenodd;clip-rule:evenodd;" d="M261.49,465.68c-33.61,0-61.36-25.6-64.77-58.33
			c-32.73-3.42-58.33-31.16-58.33-64.77c0-17.4,6.77-33.75,19.07-46.05c12.3-12.3,28.65-19.07,46.04-19.07c0.01,0,0.01,0,0.02,0
			h75.06c3.95,0,7.15,3.2,7.15,7.15c0,3.95-3.2,7.15-7.15,7.15h-75.06h-0.01c-13.57,0-26.33,5.28-35.93,14.88
			c-9.6,9.6-14.89,22.36-14.88,35.94c0,28.02,22.8,50.82,50.83,50.83c3.95,0,7.15,3.2,7.15,7.15c0,28.02,22.8,50.82,50.82,50.82
			s50.82-22.8,50.82-50.82v-75.07c0-3.95,3.2-7.15,7.15-7.15s7.15,3.2,7.15,7.15v75.07C326.61,436.47,297.39,465.68,261.49,465.68
			L261.49,465.68z"/>
		<path id="_391067024" style="fill-rule:evenodd;clip-rule:evenodd;" d="M319.46,332.62c-12.3,0-24.6-4.68-33.96-14.05
			c-18.73-18.73-18.73-49.2,0-67.93s49.2-18.73,67.93,0c18.73,18.73,18.73,49.2,0,67.93C344.06,327.94,331.76,332.62,319.46,332.62z
			 M319.46,250.88c-9.01,0-17.48,3.51-23.85,9.88c-13.15,13.15-13.15,34.55,0,47.71c6.37,6.37,14.84,9.88,23.85,9.88
			c9.01,0,17.48-3.51,23.85-9.88s9.88-14.84,9.88-23.85s-3.51-17.48-9.88-23.85C336.94,254.39,328.47,250.88,319.46,250.88
			L319.46,250.88z"/>
		<path id="_391066976" style="fill-rule:evenodd;clip-rule:evenodd;" d="M290.55,262.86c-1.83,0-3.66-0.7-5.06-2.09L236,211.28
			c-2.79-2.79-2.79-7.32,0-10.11c2.79-2.79,7.32-2.79,10.11,0l49.49,49.49c2.79,2.79,2.79,7.32,0,10.11
			C294.21,262.16,292.38,262.86,290.55,262.86L290.55,262.86z"/>
		<path id="_391066664" style="fill-rule:evenodd;clip-rule:evenodd;" d="M397.86,370.16c-1.83,0-3.66-0.7-5.06-2.09l-49.49-49.49
			c-2.79-2.79-2.79-7.32,0-10.11s7.32-2.79,10.11,0l49.49,49.49c2.79,2.79,2.79,7.32,0,10.11
			C401.52,369.46,399.69,370.16,397.86,370.16L397.86,370.16z"/>
		<path id="_391066928" style="fill-rule:evenodd;clip-rule:evenodd;" d="M241.06,370.16c-1.83,0-3.66-0.7-5.06-2.09
			c-2.79-2.79-2.79-7.32,0-10.11l49.49-49.49c2.79-2.79,7.32-2.79,10.11,0s2.79,7.32,0,10.11l-49.49,49.49
			C244.72,369.46,242.89,370.16,241.06,370.16L241.06,370.16z"/>
		<path id="_391067264" style="fill-rule:evenodd;clip-rule:evenodd;" d="M348.37,262.86c-1.83,0-3.66-0.7-5.06-2.09
			c-2.79-2.79-2.79-7.32,0-10.11l49.49-49.49c2.79-2.79,7.32-2.79,10.11,0c2.79,2.79,2.79,7.32,0,10.11l-49.49,49.49
			C352.02,262.16,350.19,262.86,348.37,262.86L348.37,262.86z"/>
		<path id="_391067240" style="fill-rule:evenodd;clip-rule:evenodd;" d="M206.43,552.22c-2.89,0-5.62-1.77-6.69-4.64
			c-1.39-3.7,0.48-7.82,4.18-9.21l7.25-2.72c55.79-20.92,95.55-72.73,101.29-131.99c0.38-3.93,3.88-6.81,7.81-6.43
			c3.93,0.38,6.81,3.88,6.43,7.81c-3.09,31.83-15,62.11-34.46,87.57c-19.57,25.6-45.86,45.12-76.04,56.43l-7.25,2.72
			C208.12,552.07,207.27,552.22,206.43,552.22L206.43,552.22z"/>
		<path id="_391066904" style="fill-rule:evenodd;clip-rule:evenodd;fill:#98DB7C;" d="M152.68,226.63
			c0.01,28.02,22.8,50.82,50.82,50.83h0.02h68.46c1.13-7.58,4.08-14.95,8.84-21.38l-44.81-44.81c-2.79-2.79-2.79-7.32,0-10.11
			c2.79-2.79,7.32-2.79,10.11,0l44.81,44.81c6.44-4.76,13.8-7.7,21.39-8.84v-68.46c-0.01-28.02-22.81-50.82-50.83-50.83
			c-28.02,0-50.82,22.8-50.82,50.82c0,3.95-3.2,7.15-7.15,7.15C175.48,175.81,152.68,198.61,152.68,226.63L152.68,226.63z"/>
		<path id="_391067360" style="fill-rule:evenodd;clip-rule:evenodd;fill:#98DB7C;" d="M402.91,211.27l-44.81,44.81
			c4.76,6.44,7.7,13.8,8.84,21.39h68.47c28.02,0,50.82-22.8,50.82-50.82s-22.8-50.82-50.82-50.82c-3.95,0-7.15-3.2-7.15-7.15
			c-0.01-28.03-22.81-50.82-50.82-50.82h-0.01c-13.57,0-26.33,5.28-35.93,14.88c-9.6,9.6-14.89,22.36-14.88,35.94v68.47
			c7.58,1.13,14.95,4.08,21.38,8.84l44.81-44.81c2.79-2.79,7.32-2.79,10.11,0C405.7,203.95,405.7,208.48,402.91,211.27z"/>
		<path id="_391066616" style="fill-rule:evenodd;clip-rule:evenodd;fill:#98DB7C;" d="M402.91,357.96l-44.81-44.81
			c4.76-6.44,7.7-13.8,8.84-21.39h68.47c28.02,0,50.82,22.8,50.82,50.82c0,28.02-22.8,50.82-50.82,50.82c-3.95,0-7.15,3.2-7.15,7.15
			c-0.01,28.03-22.81,50.82-50.82,50.82h-0.01c-13.57,0-26.33-5.28-35.93-14.88c-9.6-9.6-14.89-22.36-14.88-35.94v-68.47
			c7.58-1.13,14.95-4.08,21.38-8.84l44.81,44.81c2.79,2.79,7.32,2.79,10.11,0C405.71,365.26,405.7,360.75,402.91,357.96
			L402.91,357.96z"/>
		<path id="_391067216" style="fill-rule:evenodd;clip-rule:evenodd;fill:#98DB7C;" d="M152.68,342.6
			c0.01-28.02,22.8-50.82,50.82-50.83h0.02h68.46c1.13,7.58,4.08,14.95,8.84,21.38l-44.81,44.81c-2.79,2.79-2.79,7.32,0,10.11
			c2.79,2.79,7.32,2.79,10.11,0l44.81-44.81c6.44,4.76,13.8,7.7,21.39,8.84v68.47c-0.01,28.02-22.81,50.82-50.83,50.83
			c-28.02,0-50.82-22.8-50.82-50.82c0-3.95-3.2-7.15-7.15-7.15C175.48,393.42,152.68,370.62,152.68,342.6L152.68,342.6z"/>
		<path id="_391065920" style="fill-rule:evenodd;clip-rule:evenodd;fill:#C8ECBB;" d="M295.6,308.47
			c6.37,6.37,14.84,9.88,23.85,9.88c9.01,0,17.48-3.51,23.85-9.88c6.37-6.37,9.88-14.84,9.88-23.85s-3.51-17.48-9.88-23.85
			c-6.37-6.37-14.84-9.88-23.85-9.88c-9.01,0-17.48,3.51-23.85,9.88C282.44,273.91,282.44,295.32,295.6,308.47z"/>
	</g>
</g>
</svg>
